<?xml version="1.0" encoding="UTF-8" ?>
<svg version="1.1" width="120" height="120" xmlns="http://www.w3.org/2000/svg" shape-rendering="crispEdges">
<rect x="52" y="10" width="16" height="4" fill="#000000" />
<rect x="44" y="14" width="8" height="4" fill="#000000" />
<rect x="52" y="14" width="16" height="8" fill="#F9C22B" />
<rect x="68" y="14" width="8" height="4" fill="#000000" />
<rect x="40" y="18" width="4" height="4" fill="#000000" />
<rect x="44" y="18" width="8" height="8" fill="#F9C22B" />
<rect x="68" y="18" width="8" height="8" fill="#F9C22B" />
<rect x="76" y="18" width="4" height="4" fill="#000000" />
<rect x="36" y="22" width="4" height="12" fill="#000000" />
<rect x="40" y="22" width="4" height="28" fill="#F9C22B" />
<rect x="52" y="22" width="16" height="4" fill="#000000" />
<rect x="76" y="22" width="4" height="28" fill="#F9C22B" />
<rect x="80" y="22" width="4" height="12" fill="#000000" />
<rect x="44" y="26" width="4" height="12" fill="#F9C22B" />
<rect x="48" y="26" width="4" height="12" fill="#000000" />
<rect x="68" y="26" width="4" height="12" fill="#000000" />
<rect x="72" y="26" width="4" height="12" fill="#F9C22B" />
<rect x="32" y="34" width="4" height="20" fill="#000000" />
<rect x="36" y="34" width="4" height="16" fill="#F9C22B" />
<rect x="80" y="34" width="4" height="16" fill="#F9C22B" />
<rect x="84" y="34" width="4" height="20" fill="#000000" />
<rect x="44" y="38" width="4" height="16" fill="#000000" />
<rect x="72" y="38" width="4" height="16" fill="#000000" />
<rect x="36" y="50" width="8" height="4" fill="#000000" />
<rect x="48" y="50" width="24" height="4" fill="#000000" />
<rect x="76" y="50" width="8" height="4" fill="#000000" />
<rect x="28" y="54" width="4" height="36" fill="#000000" />
<rect x="32" y="54" width="4" height="36" fill="#F79617" />
<rect x="36" y="54" width="48" height="6" fill="#FFFFFF" />
<rect x="84" y="54" width="4" height="36" fill="#F79617" />
<rect x="88" y="54" width="4" height="36" fill="#000000" />
<rect x="36" y="60" width="4" height="26" fill="#FFFFFF" />
<rect x="40" y="60" width="40" height="4" fill="#000000" />
<rect x="80" y="60" width="4" height="26" fill="#FFFFFF" />
<rect x="40" y="64" width="40" height="6" fill="#FFFFFF" />
<rect x="40" y="70" width="40" height="4" fill="#000000" />
<rect x="40" y="74" width="40" height="6" fill="#FFFFFF" />
<rect x="40" y="80" width="40" height="4" fill="#000000" />
<rect x="40" y="84" width="40" height="2" fill="#FFFFFF" />
<rect x="36" y="86" width="8" height="4" fill="#F79617" />
<rect x="44" y="86" width="32" height="4" fill="#FFFFFF" />
<rect x="76" y="86" width="8" height="4" fill="#F79617" />
<rect x="32" y="90" width="12" height="4" fill="#000000" />
<rect x="44" y="90" width="4" height="4" fill="#F79617" />
<rect x="48" y="90" width="24" height="4" fill="#FFFFFF" />
<rect x="72" y="90" width="4" height="4" fill="#F79617" />
<rect x="76" y="90" width="12" height="4" fill="#000000" />
<rect x="44" y="94" width="4" height="4" fill="#000000" />
<rect x="48" y="94" width="4" height="4" fill="#F79617" />
<rect x="52" y="94" width="16" height="4" fill="#FFFFFF" />
<rect x="68" y="94" width="4" height="4" fill="#F79617" />
<rect x="72" y="94" width="4" height="4" fill="#000000" />
<rect x="48" y="98" width="4" height="4" fill="#000000" />
<rect x="52" y="98" width="4" height="4" fill="#F79617" />
<rect x="56" y="98" width="8" height="4" fill="#FFFFFF" />
<rect x="64" y="98" width="4" height="4" fill="#F79617" />
<rect x="68" y="98" width="4" height="4" fill="#000000" />
<rect x="52" y="102" width="4" height="4" fill="#000000" />
<rect x="56" y="102" width="8" height="4" fill="#F79617" />
<rect x="64" y="102" width="4" height="4" fill="#000000" />
<rect x="56" y="106" width="8" height="4" fill="#000000" />
</svg>